<svg id="Graphic_elements" data-name="Graphic elements" xmlns="http://www.w3.org/2000/svg" viewBox="0 0 800 1200"><defs><style>.cls-1{fill:none;}</style></defs><path class="cls-1" d="M375.25,751.07c1.13-5.32-2.33-8.69-6.87-8.58a11.69,11.69,0,0,0-2,.23C362.19,747.41,369.9,755.41,375.25,751.07Z"/><path class="cls-1" d="M407.46,622h0a15.76,15.76,0,0,0-2.4.18c-9.51,1.2-19.87,0-28.65,4.46-1.93,3.26,5.59.8,7,1.14,12.83-4.69,26.63-2.12,39.87.46C420,624.07,413.23,621.9,407.46,622Z"/><path class="cls-1" d="M371.85,734.77a16.28,16.28,0,0,0-6.85-2.06h-1C362.58,736.94,370.68,738.43,371.85,734.77Z"/><path class="cls-1" d="M397.87,632.19c-3.89.75-12-.51-12.38,3.09,9.94-.46,21.26,1.09,30.51-1.37-1.89-1.6-5.06-1.89-8.44-1.89S400.59,632.42,397.87,632.19Z"/><path class="cls-1" d="M375.31,772.62c3.34-6.69,0-15.89-7.62-15.66a7.33,7.33,0,0,0-1.58.17C364.83,764.1,367.13,772.28,375.31,772.62Z"/><path class="cls-1" d="M373.36,643.29c12.28-1.55,24.62-.52,37-1.55-.48-1.43-1.95-1.83-3.79-1.77h0c-3.07.11-7.17,1.31-9.4.74-8.51.92-17.24-.28-25.64.75C369.59,642.37,372.37,643.51,373.36,643.29Z"/><path class="cls-1" d="M379.53,916.71c1.44-45.34-1.62-90.45-3-135.74-.34-3.66-5.5-3.14-8.32-4.06-2.05,4.23-.08,9.78.35,14.35,5.31,1,9.66,9.44.85,8.24,1,34.3,1.6,69.07,1.91,103.49C369.36,909.28,370.24,922.32,379.53,916.71Z"/><path class="cls-1" d="M361.11,709.78c-.56,4,5.59,2,8.05,3.38C367.79,710.36,363.84,709.9,361.11,709.78Z"/><path class="cls-1" d="M542.18,1106.15c-2,0-4.12.57-6,.68-3.64,1.89-12.87-1.54-12.62,3.55,7.36,0,15.07-.52,22-3.49a6.88,6.88,0,0,0-3.39-.74Z"/><path class="cls-1" d="M582.42,1099.11c-1.45,0-3.27.8-4.28.46-9.49,2.46-21.52,1.14-29.75,6.86a140.89,140.89,0,0,0,35.66-6.69,2,2,0,0,0-1.63-.63Z"/><path class="cls-1" d="M184.93,1080.13c-9.12,5.72-3.63,25.16,7.64,24.36,4.71-3.66,1.66-10.12,5.48-14.47-5.18-2.29-8.69-8.46-13.12-9.89Z"/><path class="cls-1" d="M370.88,726.77c5.12-6.29-5.52-8.24-9.8-8.24C358.47,724.48,366.71,728.48,370.88,726.77Z"/><path class="cls-1" d="M618.4,1081.44c1.43,4,3.3,9.1,5.75,12C625.21,1090,622.42,1082.82,618.4,1081.44Z"/><path class="cls-1" d="M404.09,131.44c39.06,2.12,77.86-3.45,116.17-7.88,28.92-4.33,59.39-9.87,85.16-25,5.33-1.75,2-8.85-1.76-10.31-63.47-23.77-132-29.65-199.28-29.51q-10.44,0-20.84.23C352.7,62.34,320.39,64.49,290.83,74c-5.22,8.58-6.78,19-10.3,28.36-.85,2-4.76,1.78-3.84-.85-1.18-8.92,8.39-18.41,3.51-26.33-14.5,6.21-37.62,2.16-41.91,21.47-.75,6.55-7.54,14.74-3.42,20.29C289.74,131.85,347.48,130.51,404.09,131.44ZM294,124.24c-1.41-3.94,0-9.06,3-12C301.78,113,298.89,124.79,294,124.24Zm-8.67-19.76c3.73-9.88,3.38-21.72,10.23-30.13a4.08,4.08,0,0,1,.74-.07c3.34,0,.89,5.86.47,7.82-3.67,9.11-4.39,19.24-8.44,28.16C285,114.39,283.79,106.61,285.34,104.48Z"/><path class="cls-1" d="M616.94,1080c-.24-2.18-3-4.81-4.52-4.75h0a.45.45,0,0,0-.28.06C610.85,1078.24,614.75,1079.39,616.94,1080Z"/><path class="cls-1" d="M230.46,109.38c-2.09-6.48,8-17.91-2.9-18.59-3.83,4.45-4.41,10.76-7.29,15.78C216.38,112.83,232.11,118.21,230.46,109.38Z"/><path class="cls-1" d="M384.46,1056.06c-4.32.57-2.84-5-5.32-7-8.89-6.91-7.32-20.12-3-29,7.19-4.35-11.27-5.89-3.49-11.38,2.85,1.71,9.53-1,8.87,3.94-1.93,4.06,6,4.69,7.62,2.75-5.58-1.15-7.44-8.75-4.82-12.87,7.21-.91,4.23-10.8-1.57-10.86-5.39,5.83-13,8.63-18,14.81,2.5,4.4-1.79,8.8,1.09,13.49-4.51,10.29,3.95,19.39,4.77,28.76-10,5.15-17.63-8.74-21.33-14.75-5,12.18-1.73-12.75-8.66-4.12a551.14,551.14,0,0,0-149,46c11.46,9.32,28.34,13.38,42.87,17.72,3.13,2,10,4.23,6.39,9.21-6.14,3.54-14.23-3.89-20.53-.52-3.3,5.61,2.07,14.07,8.62,13.9,6.31,9.43,20.9,7.77,30.9,11.43,37.13,7.38,75.2,10,113,10.69,9.41-2.8,19.51,2.29,28.93-1,19.9,3.66,39.6-3.66,58.25-1,6-4.34,15.79-3.54,19.47-10.8-.08-4.35-4.46-9.72,1.48-12.12-9.44.34-22.38-3.15-33.07-.75-59.73,4.18-119.74.06-179.28-7.2-4.06.34-3.9-6.81.27-6.06,41.57,4.4,83.26,6.86,125,8.23,28.71-1.49,57.43-3,86.21-2.69,26.91-1.94,53.06-9.2,80-10.06,6.1-5.09,14.56-.46,21.3-4.46,6-3.09,17.86,1.09,20.35-6.69-8.34,1.14-17.12,2.74-25.41,1.26-3.42-5.43,7-4.86,9.85-5.66-3.87-3.09-16.47,3.26-15.75-4.86,9.44-2.92,20.8.51,29.56-2.92-11.18-2.74-23.37,1.54-34.34-1.89-1.83-7.49,10.56-1.94,13.19-5.2-4.2-1.49-9.53-.4-12.81-3.83,0-4.29,9.1-1.49,9-3.55-39.17-14.4-80.74-20.92-121.74-28.36-3.28,1.72.52,6.06,1.73,8.18,22.66,4.92,45.88,8.92,67.13,18.53,4.51,5,12.36,10.17,8.28,18-4.41,6.63-10.26,14.69-19.3,13.78a431.55,431.55,0,0,1-74.36,1.6c-4.85-2.4,3.46-4.69,5.48-3.83,19.09-5.66,40.14-.57,59.9-4.69,5.7-2.29,12.6,4.69,16.47-2.06-18.12-1.37-36.29-.23-54.44.52-3.46,2.51-8.11-4.41-3.48-4.86a421.81,421.81,0,0,1,58.28-1c-.16,4.4,5.72,2.85,3.93-.92-16.5-5.26-34.37-.57-51.1-2-2-6.46,6.33-4.12,9.3-5.66-3.68-2.46-14.54,3.09-16.5-3.32,11.18-5.26,25.06-1.43,37.32-2.86,1.7,2.18,5.22-1.65,2.51-2-14.9-3.55-30.67.51-45.45-.52-.83-7.49,12.06-3,14.93-6.75a147.62,147.62,0,0,0-26.39-3.77C431.54,1061.77,405.33,1059.49,384.46,1056.06Zm-89.35,20.47c-3.93.8-8.09.34-10.73-3-4.86-2.86-16.29-2.46-15.4-10.63-1.08-8,7.4-9.78,13-12h0c8.85,3.26-10.32,7.49-5.68,13.67,11.45,6.34,23.42,12.92,37,9.37,3,6.12,14.43-1.88,14.69,5C316.59,1081.73,305.9,1080.47,295.11,1076.53Z"/><path class="cls-1" d="M368.11,641.68c-2.24-1.25-4.4-2.68-6.55-4.11,5.17,19.15,8.75,39.85,13.45,59.58,6.61,61,11.51,122,10.65,183.48,5.86,14.64-2.31,31.11,3.06,45.75,3.59,1,10.92-1,12.34,4.11-2.41,5.38-10.23-.34-13.22.57a510,510,0,0,0-.75,54c8.66,2.46,22.16,8.63,26.1-4.18-.52-45.85-2.33-91.65,1.91-137.4-.85-9-4.45-18.12-.59-26.87-1.66-14.92,1.37-29.5,4.4-44,4.48-36.08,3.65-72.61,8.58-108.64-17.21,2.69-34.61,1.32-51.91,2.18-2.66-6.29,6-4.81,9.13-5.49,14.54.4,29.31-2.8,43.64.45,1.65-5.94-5.76-4.68-9-5.54-15.09.17-30.23.17-45.33,1.14-2.52-1.26-2.06-5.49,1.07-5.26,18-1.54,36.15-1.08,54.2-.63,1.54-2.17-.67-3.89-2.81-4-19.27.57-38.57.92-57.84,1.94C364.16,648,363.73,643.06,368.11,641.68ZM390,698.52c-2.31-4.12,3.66-5,6.48-5a7.23,7.23,0,0,1,2.63-.46c2.94,0,6.17,1.48,4.46,4.8C399.35,699.43,394.27,700.64,390,698.52Zm5.7,236.66c2.43.12,8-.34,8.21,3.15C400.73,944.33,385,938.21,395.72,935.18ZM394.22,955c2.71.17,7.71-.17,8.24,3.43C400.85,964.8,386.1,958.74,394.22,955Zm9.17-5.6c-3.57,3.49-11.16-2.8-4.84-4.35a4,4,0,0,1,1.66-.34C402.71,944.79,405.33,947.07,403.39,949.42ZM412,683.48c-7.57,2.17-15.8,1.77-23.62,2.69-3.39.51-4.4-5.32-.71-5.43,6,.57,12-1.09,18-1.49a3.62,3.62,0,0,1,1.88-.4C410.8,678.74,415.55,680.68,412,683.48Zm-37-12.81c6.78-.23,13.59-.34,20.39-.4s13.59.12,20.38.29c3.83-.29,4,5.32.42,5.72-12.09.68-24.75-1-36.61-.29C377.93,683,370.49,671.25,375,670.67Z"/><path class="cls-1" d="M210.27,107.17c.7-2.22,2.22-8-1.15-8a4.21,4.21,0,0,0-.74.1C204.87,101.39,205.75,107.48,210.27,107.17Z"/><path class="cls-1" d="M428.35,631.16c-1.67,2.75-.73,7.89-5,8-10.38,2.06,6.19,3.26,8.83,1C436.6,636.65,433,631.56,428.35,631.16Z"/><path class="cls-1" d="M432.57,1040.5c-2.33-5.71-4.05-11.83-6.37-17.55,3.18-1.89,5.86-5.77.48-5.6-8.8,4.57-3.81,17.89-6.21,26.64C424.48,1046.34,430,1043.19,432.57,1040.5Z"/><path class="cls-1" d="M358.29,698.92c.45,4.69,7.07,4.29,10.47,5C369,699.38,361.26,700.12,358.29,698.92Z"/><path class="cls-1" d="M339.54,636.82c.36,3.38,5,2.29,7.44,3.38C345.66,637.68,342,637.68,339.54,636.82Z"/><path class="cls-1" d="M609.57,347.58a1.8,1.8,0,0,0-.4,0c-2.12.05-2.86,2.11-2.89,3.91C608.61,354.8,613.42,347.72,609.57,347.58Z"/><path class="cls-1" d="M581.73,413.35a12.26,12.26,0,0,0-4.7-1c-.23,0-.45,0-.68,0C572.72,415.49,582.19,415.33,581.73,413.35Z"/><path class="cls-1" d="M575.5,398.21c4.76-3.94,7.59,3,12.85.21,3.38-.23,3.8-5.39.94-5.41a3.54,3.54,0,0,0-1.42.34C583.48,394.46,575.66,391.61,575.5,398.21Z"/><path class="cls-1" d="M594.83,386.58c-.15-1.89-1.51-2.33-3.21-2.28-2.18.06-4.93.92-6.39.54C569,386.7,590.72,392.4,594.83,386.58Z"/><path class="cls-1" d="M567.26,444.22a14,14,0,0,0-2.24.31C563.37,450.87,572.84,444.05,567.26,444.22Z"/><path class="cls-1" d="M448.32,611c-5.24,5.08-12.49-4.09-5.58-6.87,3.41-8,16.09-.56,18.94-9.18.7-7.33-13.5.33-15.05-6,5-4.5,15.35,1.06,18.66-3.43-5.05-3.32,1.31-7,5.21-6.45,1.35-3.94-10.49,1.36-10.93-3.62,2.51-3.15,8.88-1.81,10.56-4.12-5.76-5.28,4.73-5.8,8.05-6a47,47,0,0,0,7.23-12.93c-3.09-1.52-10.47.54-8.27-4.74,4.35-1,8.85-.92,13.2-1.83.69-3.81-6.86-.39-5.68-4.71,3.83-4.12,12.41-.7,15.67-4.45-3.35-1.77-11.5,3.65-14.26-1.47,1.91-3.6,7.76-3.24,11.34-3.89-6-6.33,7.73-5.32,10.62-6.74-7.8-4.87,10.29-8.67,7.88-16.26-4.68.84-5.18-2-4.32-5.28-2.31-.14-8.55.14-6.58-3.89,6-2.66,13.27.38,19.14-2.63-3.09-3.55-11.41,2.18-13.78-2.83,3.13-7,20.9,1.6,21.23-7.49-8.38-2.25,2.69-5.52,5.6-6.44,5.19-6.06-10-.83-7.17-7.08,4-1.59,8.42-.89,12.55-1.89.37-6-12.12,2-11.58-4.74,4.86-3.7,11.75-.95,17-3.22,1.14-3.25,3.66-5.88,4.59-9.14-5.05,1.21-14.58-3.34-5-5.09,6.17.83-.46-6,3.66-6.88,3-.7,6.19-4.37,3.93-7.26-7.47-.2-17.21,2.79-23.43-.69,6.82-6.43,19.8-1.52,28-4.49,0-6.35-15.13,4-14.41-3.9,5.21-4.2,13.56-.7,18.9-4.73-3.25-2.1-10.47,1.83-11.1-3.29,3.93-2.92,9.4-1.32,13.73-3,0-3.57-8.16.28-6.43-4.71,2.85-1,8.68-4.2,3.4-6.47-7.12-5.91,11.2-1.48,5.79-9.38-5.27-5,7.68-3.15,5.57-8.58-2.54-.65-7.49,1.18-7-2.79,9-5,20.55-1.37,30.22-3.83.22-5-6.34-2.22-9.36-1.64-5.39-1.85-11.15-1-16.74-1.36-2.47-9.5,17.5.31,15.9-8.22-2.75-2.92-10.94,1.33-12.12-3.59,3.56-4,9.32-.52,13.62-2.38.53-4.4-6.87-.79-8.42-3.76a37.47,37.47,0,0,1,2.45-15.86c2.6-9.3-15.75-.29-13.42-8.24,2.72-3.64-5.2-1.32-3.49-5.44,6.28-3,14.34.55,20.18-3.24.26-4.66-7.64-.4-8.76-4.16-.35-3.35,4.75-1.9,6.44-2.75,6.75,1.81,3.62-8.24,8.49-8.6,2,2.56,1.39,12,5.82,5.7,1.92-6.42,5.21,3.75,7.73-.29,1.8-6.11-8.28.08-7.76-6.08,3.76-2.62,9-.76,12.42-4.25,8.27,2.44-3.63,9.63,3.18,12.93,2.54,2.79,6.9-2.54,7.8,2.11-3.33,32.31-18.56,61.59-27.26,92.42-33.86,62.91-72.3,124.11-107.26,185.81-5.82,2.82-5.51,14.31-13.38,13-5.44-4.12-19.37-3.63-18.35,5.85,8.18-2.87,17.87-.74,25.43-3.71,56.33-84.42,112.77-171.2,142.07-269.62,10-45.29,14.37-91.91,9.9-138.26-.66-33.54-12.33-65.7-20.84-97.92-.14-1.1-.71-2-1.63-2.11h0a2,2,0,0,0-1,.25c-22.83,9.67-46,19.34-70.65,22.21-10.6,5.15-22.79,4.06-34,7.54-80.49,6.41-161.86,8-242.29-2.12-20.93-5.69-42.15-12.17-61.91-21.77-.84-.32-2.72-.79-2.9.44-10.84,21.63-21,45.41-22.76,70.18-16.72,58.92-11,123.12,9.3,180.37,3.48,24.53,16.86,45.94,26.75,68.22,13.33,25.52,26.15,51.79,43,74.88,19.57,36.89,47.1,69.68,67.54,106.34,15.22-3.72,29.54,5.34,39.76,15.75,20.12-12.74,48.72-19.05,69.1-3.26,6.45,5.83,9.81-5.85,15.73-7.33C450.07,616.76,455.13,608.07,448.32,611Zm175.6-353.17c-10.89,2.11-22.15,1.87-33.2,2.66-1.93.15-2.06-1.51-1.34-2.89,10.07-2.31,20.54-1.22,30.72-2.79a3,3,0,0,1,2-.54C624.15,254.43,626.16,256.3,623.92,257.87Zm-8.71,16.38a150.17,150.17,0,0,1-25.88,3.56c-2.49.56-3.63-3.1-.92-3.4q11.54-1.43,23-3.31a3.3,3.3,0,0,1,.86-.13C614.51,270.88,617.64,272.14,615.21,274.25Zm8.59-31.92c2.62,0,5.81,2.42,2.14,4-10.93,1.19-22.14,1.38-33.12,3-1.58.3-3.77-2.88-1.25-3.12,10.23-2.14,20.78-2.66,31.17-3.75A3.63,3.63,0,0,1,623.8,242.33Zm-8.33-59.91c-3.35,10.66-32-4-29.25,11.78,9.55,2.26,20.58.79,30.39-1.53,3.26-2.36,4.63,1.31,3.61,3.44-10.57,3.72-22,2-32.92,3.5-.8,5.23,1,11.29.28,16.78,5.15,4.92,17.2-2.93,21.46,3.2-4.18,6.86-27.47-4.52-21.26,10.95,9.39,2.72,21.75-2.34,32-.58,1.55.24,2.36,2.33.56,2.9-10.55,2.48-21.94.69-32.42,3.48-1.3,16.73-4.78,33.32-4.46,50.15,11.44.85,22.6-2.3,33.88-3.24,3,0,1.76,3.87-.58,4-11.17,2-22.59,3.51-34,3.06-1.7,1.84-1.17,5.2-1.57,7.64,8.79-.66,17.44-2.47,26.14-3.86,2.38-.48,8.88-1.3,7.41,3.1-11.07.48-22.73,5.74-33.63,2.35-2.14,5.78-1.25,12.8-5.1,17.81-4-2.36-.24-10.4-1.76-14.92,3.69-26.44,7.78-53.4,6.85-80-3.77,4.63-1.17,15.55-5.74,18.86,2.32-20.44,4.47-41.67,6.63-61.86C589.85,186.78,605,180.32,615.47,182.42Zm-10.28-7.72c-7.1,1.18-15.45,3-22.12-.4,4.62-4.58,12.54-1.38,18.21-3.26a5,5,0,0,1,1-.12C604.45,170.84,606.61,172.15,605.19,174.7Zm-2-12.56c1.85.06,3.15.77,2,3.26-7.79,1.19-16.08,4.56-23.92,2.38,1.22-6.24,12.47-2.91,17.58-5.14A22.32,22.32,0,0,1,603.2,162.14Zm-38.63-8.33c8.75-4,18.92-3.52,28.15-6.35l.37,0c1.89-.08,4.26,1.4,2.15,3.13-7.82,4.29-17.46,2.69-25.55,5.32a143.35,143.35,0,0,1,.91,43.66c-3.92,30.95-1.78,62.34-5.4,93.17.54,2.57-3,6.11-3.83,2.24,2.52-29.8,1.14-59.88,5-89.64C568.19,188.25,569.51,170.47,564.57,153.81ZM545.76,379.19c3.88-11.74,4-25.14,9.92-35.94h0c.28,12.51-4,28.24-8.81,41.18C543.9,390.36,544.78,380.93,545.76,379.19ZM228.92,341.67c-12-29-10.15-61.46-13.87-92.11-.47-19.84.24-39.83,3.93-59.36.62-6.69-.59-14.81,4.41-20.1L224,170c5.63-.24.83,9.77,1.79,12.67-7.74,47.83-5.07,96.86,3.12,144.49C228.67,330.92,235.51,340.53,228.92,341.67Zm15.48,15c-7-26.27-13-53-14.73-80.25.08-2.56-.48-6.38,1.52-8.33a1.93,1.93,0,0,1,.93-.23c1.24,0,2,1.49,2,2.77-.19,31.43,8.34,62.06,15.39,92.42C247.64,367.75,245,358.45,244.4,356.68Zm46.92,116.1c14.26,29.14,29.84,57.63,45.88,85.79,1.26,5.49-6.15-1.31-6.11-3.38-18.8-33.67-39.74-67.35-51.53-104C286.05,455.18,287.85,465.78,291.32,472.78Zm-17.52,7.51c6.17,3.94,7.47,12.58,11.73,18.33,7,14.24,17.29,26.9,22.37,42-13.43-14-20-32.85-30.45-48.95C276.22,488.11,271.81,484.22,273.8,480.29Zm1.64,42c-2.22-4.52-6.27-8.74-6.46-13.94a3.44,3.44,0,0,1,.62,0c2.95.11,3.72,4.68,5.62,6.38a626.29,626.29,0,0,0,34.14,53.73c5.91,8.54,14.12,16.08,17.41,26.12C305.41,574.05,291,547.27,275.44,522.28Zm65.27,70.45c-10.17-15-21.7-29.73-29.61-45.85,11.65,7.24,16.7,22.78,25.54,33.56,2.57,6,9.64,10,10,16.9C343.55,598,342.2,594.71,340.71,592.73Zm37,21.1c-22.3-34.91-45.21-69.78-61.34-108.13-1.57-5.87-8.09-12.33-6.6-18.11,2.51-.2,4,3.35,5,5.46,17.64,40.87,41.86,78.25,64.22,116.59C380.6,611.35,381,616.49,377.66,613.83ZM452.1,434c8-17.47,21.42-33,30.55-50.28.5-4.18,3.73-1.66,2.5.36-9.1,17.51-20.92,33.74-31.15,50.39,5.1,4.85,14.65,3.31,18-3.48,10.09-16,25.53-30.33,28.27-49.72-2.88-.34-8.56-3.71-3.09-5.18,1.49.14,3.59,0,5.64,0,3.41,0,6.71.56,6.86,3.87-9.05,5.1-8.91,17.21-15.8,24.4C488,415.69,479.68,425.46,472.59,436c-2.42,2.46,5.17,5.22.66,7.26-9.21-1.37-11.39,10.11-18.65,12.62-5.67-3.47,14.34-12.52,2.72-14C452.33,442,442.13,435.68,452.1,434Zm-7.18,143C466.1,544,483.83,508.6,500.7,473.2a3.68,3.68,0,0,1,.61-.07h0c2.73,0,.51,4.78-.15,6.33-14.41,33.37-32.21,65.31-50.93,96.4C449.55,578.3,444.12,581.7,444.92,577.06Zm-41.83-12.45c-2.53.11-9.69.31-7.42-4.21,18.26,1.49,32.79-11.27,46.44-21.33a2.15,2.15,0,0,1,.76-.2c1.65-.11,2.32,2.13.82,3.27C432.37,552.75,418.68,562.09,403.09,564.61Z"/><path class="cls-1" d="M499.13,560.46a2.49,2.49,0,0,0-1.45-.42c-2.55.12-4.53,4.39-1.61,4.53C499.48,567.38,503.79,560,499.13,560.46Z"/><path class="cls-1" d="M531.85,501.69c-.5,0-1.09,0-1.78.08C526.22,506.28,539.32,501.61,531.85,501.69Z"/><path class="cls-1" d="M547,475.91a3.75,3.75,0,0,0-1.19.16c-1.11.81-3.51,3.1-1.72,4.14C546.55,483.06,550.13,476.15,547,475.91Z"/><path class="cls-1" d="M595.2,322.15a7.43,7.43,0,0,0-1.71.19C593,328.66,599.53,322.29,595.2,322.15Z"/><path class="cls-1" d="M586.28,406.83c1.73-2.27-1-3.42-3.35-3.36a4,4,0,0,0-1.95.47C575.12,406.7,584,411,586.28,406.83Z"/><path class="cls-1" d="M582.52,330.64c-2,.07-4.79.95-6.06.48-10.66,1.46,5.22,3,8.19,1.86.5-2-.57-2.39-2.13-2.34Z"/><path class="cls-1" d="M578,426.94a15.57,15.57,0,0,0-3.78.52C573.89,432.34,582.25,427.12,578,426.94Z"/><path class="cls-1" d="M599.42,349.1a13.31,13.31,0,0,0-3.65-.48c-2.06,0-4.14.27-6.16.36C578.85,354.2,604.06,358,599.42,349.1Z"/><path class="cls-1" d="M570.94,435.37c-6.46,5.65,10.79.08,2.1-.05C572.46,435.31,571.77,435.33,570.94,435.37Z"/><path class="cls-1" d="M591.4,337.93a2.6,2.6,0,0,0-.7.11c-1.52,1.26-2.85,5.12-.21,5.72C593.8,344.28,594.61,337.83,591.4,337.93Z"/><path d="M337.2,558.57c-16-28.16-31.62-56.65-45.88-85.79-3.47-7-5.27-17.6-11.76-21.6,11.79,36.66,32.73,70.34,51.53,104C331.05,557.26,338.46,564.06,337.2,558.57Z"/><path d="M232.12,267.87a1.93,1.93,0,0,0-.93.23c-2,1.95-1.44,5.77-1.52,8.33,1.74,27.22,7.73,54,14.73,80.25.63,1.77,3.24,11.07,5.11,6.38-7-30.36-15.58-61-15.39-92.42C234.12,269.36,233.36,267.91,232.12,267.87Z"/><path d="M561.37,294.94c.81,3.87,4.37.33,3.83-2.24,3.62-30.83,1.48-62.22,5.4-93.17a143.35,143.35,0,0,0-.91-43.66c8.09-2.63,17.73-1,25.55-5.32,2.11-1.73-.26-3.21-2.15-3.13l-.37,0c-9.23,2.83-19.4,2.34-28.15,6.35,4.94,16.66,3.62,34.44,1.81,51.49C562.51,235.06,563.89,265.14,561.37,294.94Z"/><path d="M225.76,182.71c-1-2.9,3.84-12.91-1.79-12.67l-.58.06c-5,5.29-3.79,13.41-4.41,20.1-3.69,19.53-4.4,39.52-3.93,59.36,3.72,30.65,1.87,63.12,13.87,92.11,6.59-1.14-.25-10.75,0-14.47C220.69,279.57,218,230.54,225.76,182.71Z"/><path d="M275.22,514.67c-1.9-1.7-2.67-6.27-5.62-6.38a3.44,3.44,0,0,0-.62,0c.19,5.2,4.24,9.42,6.46,13.94,15.57,25,30,51.77,51.33,72.24-3.29-10-11.5-17.58-17.41-26.12A626.29,626.29,0,0,1,275.22,514.67Z"/><path d="M581.26,167.78c7.84,2.18,16.13-1.19,23.92-2.38,1.17-2.49-.13-3.2-2-3.26a22.32,22.32,0,0,0-4.36.5C593.73,164.87,582.48,161.54,581.26,167.78Z"/><path d="M307.9,540.63c-5.08-15.11-15.38-27.77-22.37-42-4.26-5.75-5.56-14.39-11.73-18.33-2,3.93,2.42,7.82,3.65,11.39C287.91,507.78,294.47,526.64,307.9,540.63Z"/><path d="M442.87,538.87a2.15,2.15,0,0,0-.76.2c-13.65,10.06-28.18,22.82-46.44,21.33-2.27,4.52,4.89,4.32,7.42,4.21,15.59-2.52,29.28-11.86,40.6-22.47C445.19,541,444.52,538.76,442.87,538.87Z"/><path d="M480.8,633.62c22.25-36.87,45.3-73.24,68.34-109.63,31.5-52.47,57.26-108.39,77.66-166.12,9-37.28,16-75.08,16.56-113.51v-4.73c.29-46.6-9.39-92.53-24.63-136.41-3.06-7-1.87-17.81-10.38-21.14-28.92-15.49-62.19-18.57-93.6-25.67C477.11,53.31,439,52,401.64,50H401c-11.68,2.63-23.75.09-35.57,1.45C315.23,59,263.73,64.1,215.9,82.09c-8.37,6.26-21.65,9.11-22.88,21.42-14.87,26.38-23.82,55.55-30.15,85-1.11,13.36-2,27.05-6.24,39.88v7.23a62.09,62.09,0,0,1,0,19V279c4.56,43.65,18.62,85.52,34.34,126.29,2.81,14.51,14.78,24.72,19.18,38.63,9.4,19.11,20.61,37.32,30.09,56.42,9.55,23.6,27.69,42,41.38,62.95,26.93,34.33,44.32,74.76,60.13,115.07-.67,24.08,13.14,45.4,14,69.13,3.94,60.1,7.19,120.54,7.9,180.69-3,27.84,3.85,58.66-11.11,83.94-1.71,2.68-3.25,6.17-6.74,6.91-34.19,7-68.75,13.16-101.48,25.68-21.83,8.17-44.61,13.66-63.85,26.93-12.43,10.12-13.16,32,2.16,40.19,26.3,13.61,55.54,21.68,84.46,28.54,44.44,4.69,89.07,8.29,133.73,9.66H436.3c56.18-8,114.41-8.35,167.91-29.1,12.93-7.32,26.73-15.1,33.32-29.11-1.37-11.49-11.43-19.38-20.22-25.84-52.07-23.79-108.64-36.6-165.32-43.8-.84-5.95-1.23-12.07-3.15-17.78-13.15-22.13-8.56-49-10.09-73.48-1.3-25-3.56-50.37.6-75.13-2.37-51.86.57-104.69,15.2-154.78C459.48,677.25,465.72,653.12,480.8,633.62Zm143.35,459.77c-2.45-2.85-4.32-8-5.75-12C622.42,1082.82,625.21,1090,624.15,1093.39Zm-12-18.12a.45.45,0,0,1,.28-.06h0c1.52-.06,4.28,2.57,4.52,4.75C614.75,1079.39,610.85,1078.24,612.14,1075.27ZM238.29,96.64c4.29-19.31,27.41-15.26,41.91-21.47,4.88,7.92-4.69,17.41-3.51,26.33-.92,2.63,3,2.81,3.84.85,3.52-9.34,5.08-19.78,10.3-28.36,29.56-9.5,61.87-11.65,92.71-15.06q10.4-.2,20.84-.23c67.29-.14,135.81,5.74,199.28,29.51,3.76,1.46,7.09,8.56,1.76,10.31-25.77,15.17-56.24,20.71-85.16,25-38.31,4.43-77.11,10-116.17,7.88-56.61-.93-114.35.41-169.22-14.51C230.75,111.38,237.54,103.19,238.29,96.64Zm-18,9.93c2.88-5,3.46-11.33,7.29-15.78,10.86.68.81,12.11,2.9,18.59C232.11,118.21,216.38,112.83,220.27,106.57Zm-11.89-7.25a4.21,4.21,0,0,1,.74-.1c3.37-.09,1.85,5.73,1.15,8C205.75,107.48,204.87,101.39,208.38,99.32Zm131.16,537.5c2.47.86,6.12.86,7.44,3.38C344.54,639.11,339.9,640.2,339.54,636.82Zm18.75,62.1c3,1.2,10.67.46,10.47,5C365.36,703.21,358.74,703.61,358.29,698.92Zm10.35-50.15c19.27-1,38.57-1.37,57.84-1.94,2.14.11,4.35,1.83,2.81,4-18.05-.45-36.19-.91-54.2.63-3.13-.23-3.59,4-1.07,5.26,15.1-1,30.24-1,45.33-1.14,3.24.86,10.65-.4,9,5.54-14.33-3.25-29.1,0-43.64-.45-3.17.68-11.79-.8-9.13,5.49,17.3-.86,34.7.51,51.91-2.18-4.93,36-4.1,72.56-8.58,108.64-3,14.53-6.06,29.11-4.4,44-3.86,8.75-.26,17.9.59,26.87-4.24,45.75-2.43,91.55-1.91,137.4-3.94,12.81-17.44,6.64-26.1,4.18a510,510,0,0,1,.75-54c3-.91,10.81,4.81,13.22-.57-1.42-5.14-8.75-3.08-12.34-4.11-5.37-14.64,2.8-31.11-3.06-45.75.86-61.46-4-122.53-10.65-183.48-4.7-19.73-8.28-40.43-13.45-59.58,2.15,1.43,4.31,2.86,6.55,4.11C363.73,643.06,364.16,648,368.64,648.77Zm58,368.58c5.38-.17,2.7,3.71-.48,5.6,2.32,5.72,4,11.84,6.37,17.55-2.55,2.69-8.09,5.84-12.1,3.49C422.87,1035.24,417.88,1021.92,426.68,1017.35Zm5.52-377.21c-2.64,2.29-19.21,1.09-8.83-1,4.25-.12,3.31-5.26,5-8C433,631.56,436.6,636.65,432.2,640.14Zm-48.82-12.35c-1.38-.34-8.9,2.12-7-1.14,8.78-4.41,19.14-3.26,28.65-4.46a15.76,15.76,0,0,1,2.4-.18h0c5.77-.11,12.5,2.06,15.79,6.24C410,625.67,396.21,623.1,383.38,627.79ZM416,633.91c-9.25,2.46-20.57.91-30.51,1.37.38-3.6,8.49-2.34,12.38-3.09,2.72.23,6.31-.11,9.69-.17S414.11,632.31,416,633.91Zm-18.87,6.8c2.23.57,6.33-.63,9.4-.74h0c1.84-.06,3.31.34,3.79,1.77-12.34,1-24.68,0-37,1.55-1,.22-3.77-.92-1.87-1.83C379.89,640.43,388.62,641.63,397.13,640.71ZM369.38,799.5c8.81,1.2,4.46-7.26-.85-8.24-.43-4.57-2.4-10.12-.35-14.35,2.82.92,8,.4,8.32,4.06,1.41,45.29,4.47,90.4,3,135.74-9.29,5.61-10.17-7.43-8.24-13.72C371,868.57,370.34,833.8,369.38,799.5Zm-3-56.78a11.69,11.69,0,0,1,2-.23c4.54-.11,8,3.26,6.87,8.58C369.9,755.41,362.19,747.41,366.38,742.72Zm-2.42-10h1a16.28,16.28,0,0,1,6.85,2.06C370.68,738.43,362.58,736.94,364,732.71Zm2.15,24.42a7.33,7.33,0,0,1,1.58-.17c7.61-.23,11,9,7.62,15.66C367.13,772.28,364.83,764.1,366.11,757.13Zm3.05-44c-2.46-1.38-8.61.57-8.05-3.38C363.84,709.9,367.79,710.36,369.16,713.16Zm-8.08,5.37c4.28,0,14.92,2,9.8,8.24C366.71,728.48,358.47,724.48,361.08,718.53Zm-168.51,386c-11.27.8-16.76-18.64-7.64-24.36h0c4.43,1.43,7.94,7.6,13.12,9.89C194.23,1094.37,197.28,1100.83,192.57,1104.49Zm331,5.89c-.25-5.09,9-1.66,12.62-3.55,1.85-.11,4-.63,6-.68h0a6.88,6.88,0,0,1,3.39.74C538.66,1109.86,531,1110.38,523.59,1110.38Zm24.8-4c8.23-5.72,20.26-4.4,29.75-6.86,1,.34,2.83-.46,4.28-.46h0a2,2,0,0,1,1.63.63A140.89,140.89,0,0,1,548.39,1106.43Zm-100.83-61.58a147.62,147.62,0,0,1,26.39,3.77c-2.87,3.72-15.76-.74-14.93,6.75,14.78,1,30.55-3,45.45.52,2.71.4-.81,4.23-2.51,2-12.26,1.43-26.14-2.4-37.32,2.86,2,6.41,12.82.86,16.5,3.32-3,1.54-11.32-.8-9.3,5.66,16.73,1.43,34.6-3.26,51.1,2,1.79,3.77-4.09,5.32-3.93.92a421.81,421.81,0,0,0-58.28,1c-4.63.45,0,7.37,3.48,4.86,18.15-.75,36.32-1.89,54.44-.52-3.87,6.75-10.77-.23-16.47,2.06-19.76,4.12-40.81-1-59.9,4.69-2-.86-10.33,1.43-5.48,3.83a431.55,431.55,0,0,0,74.36-1.6c9,.91,14.89-7.15,19.3-13.78,4.08-7.84-3.77-13-8.28-18-21.25-9.61-44.47-13.61-67.13-18.53-1.21-2.12-5-6.46-1.73-8.18,41,7.44,82.57,14,121.74,28.36.13,2.06-9-.74-9,3.55,3.28,3.43,8.61,2.34,12.81,3.83-2.63,3.26-15-2.29-13.19,5.2,11,3.43,23.16-.85,34.34,1.89-8.76,3.43-20.12,0-29.56,2.92-.72,8.12,11.88,1.77,15.75,4.86-2.86.8-13.27.23-9.85,5.66,8.29,1.48,17.07-.12,25.41-1.26-2.49,7.78-14.39,3.6-20.35,6.69-6.74,4-15.2-.63-21.3,4.46-26.92.86-53.07,8.12-80,10.06-28.78-.34-57.5,1.2-86.21,2.69-41.78-1.37-83.47-3.83-125-8.23-4.17-.75-4.33,6.4-.27,6.06,59.54,7.26,119.55,11.38,179.28,7.2,10.69-2.4,23.63,1.09,33.07.75-5.94,2.4-1.56,7.77-1.48,12.12-3.68,7.26-13.5,6.46-19.47,10.8-18.65-2.68-38.35,4.64-58.25,1-9.42,3.31-19.52-1.78-28.93,1-37.78-.68-75.85-3.31-113-10.69-10-3.66-24.59-2-30.9-11.43-6.55.17-11.92-8.29-8.62-13.9,6.3-3.37,14.39,4.06,20.53.52,3.61-5-3.26-7.26-6.39-9.21-14.53-4.34-31.41-8.4-42.87-17.72a551.14,551.14,0,0,1,149-46c6.93-8.63,3.62,16.3,8.66,4.12,3.7,6,11.31,19.9,21.33,14.75-.82-9.37-9.28-18.47-4.77-28.76-2.88-4.69,1.41-9.09-1.09-13.49,5-6.18,12.58-9,18-14.81,5.8.06,8.78,10,1.57,10.86-2.62,4.12-.76,11.72,4.82,12.87-1.58,1.94-9.55,1.31-7.62-2.75.66-5-6-2.23-8.87-3.94-7.78,5.49,10.68,7,3.49,11.38-4.32,8.92-5.89,22.13,3,29,2.48,2.06,1,7.61,5.32,7C405.33,1059.49,431.54,1061.77,447.56,1044.85Zm-.85-428.11c-5.92,1.48-9.28,13.16-15.73,7.33-20.38-15.79-49-9.48-69.1,3.26-10.22-10.41-24.54-19.47-39.76-15.75-20.44-36.66-48-69.45-67.54-106.34-16.88-23.09-29.7-49.36-43-74.88-9.89-22.28-23.27-43.69-26.75-68.22-20.34-57.25-26-121.45-9.3-180.37,1.75-24.77,11.92-48.55,22.76-70.18.18-1.23,2.06-.76,2.9-.44,19.76,9.6,41,16.08,61.91,21.77C343.5,143,424.87,141.45,505.36,135c11.22-3.48,23.41-2.39,34-7.54,24.68-2.87,47.82-12.54,70.65-22.21a2,2,0,0,1,1-.25h0c.92.07,1.49,1,1.63,2.11,8.51,32.22,20.18,64.38,20.84,97.92,4.47,46.35.07,93-9.9,138.26-29.3,98.42-85.74,185.2-142.07,269.62-7.56,3-17.25.84-25.43,3.71-1-9.48,12.91-10,18.35-5.85,7.87,1.33,7.56-10.16,13.38-13,35-61.7,73.4-122.9,107.26-185.81,8.7-30.83,23.93-60.11,27.26-92.42-.9-4.65-5.26.68-7.8-2.11-6.81-3.3,5.09-10.49-3.18-12.93-3.38,3.49-8.66,1.63-12.42,4.25-.52,6.16,9.56,0,7.76,6.08-2.52,4-5.81-6.13-7.73.29-4.43,6.31-3.8-3.14-5.82-5.7-4.87.36-1.74,10.41-8.49,8.6-1.69.85-6.79-.6-6.44,2.75,1.12,3.76,9-.5,8.76,4.16-5.84,3.79-13.9.21-20.18,3.24-1.71,4.12,6.21,1.8,3.49,5.44-2.33,7.95,16-1.06,13.42,8.24a37.47,37.47,0,0,0-2.45,15.86c1.55,3,9-.64,8.42,3.76-4.3,1.86-10.06-1.59-13.62,2.38,1.18,4.92,9.37.67,12.12,3.59,1.6,8.53-18.37-1.28-15.9,8.22,5.59.32,11.35-.49,16.74,1.36,3-.58,9.58-3.39,9.36,1.64-9.67,2.46-21.24-1.2-30.22,3.83-.45,4,4.5,2.14,7,2.79,2.11,5.43-10.84,3.55-5.57,8.58,5.41,7.9-12.91,3.47-5.79,9.38,5.28,2.27-.55,5.49-3.4,6.47-1.73,5,6.42,1.14,6.43,4.71-4.33,1.66-9.8.06-13.73,3,.63,5.12,7.85,1.19,11.1,3.29-5.34,4-13.69.53-18.9,4.73-.72,7.87,14.39-2.45,14.41,3.9-8.22,3-21.2-1.94-28,4.49,6.22,3.48,16,.49,23.43.69,2.26,2.89-1,6.56-3.93,7.26-4.12.92,2.51,7.71-3.66,6.88-9.58,1.75-.05,6.3,5,5.09-.93,3.26-3.45,5.89-4.59,9.14-5.27,2.27-12.16-.48-17,3.22-.54,6.72,12-1.3,11.58,4.74-4.13,1-8.57.3-12.55,1.89-2.86,6.25,12.36,1,7.17,7.08-2.91.92-14,4.19-5.6,6.44-.33,9.09-18.1.46-21.23,7.49,2.37,5,10.69-.72,13.78,2.83-5.87,3-13.1,0-19.14,2.63-2,4,4.27,3.75,6.58,3.89-.86,3.29-.36,6.12,4.32,5.28,2.41,7.59-15.68,11.39-7.88,16.26-2.89,1.42-16.59.41-10.62,6.74-3.58.65-9.43.29-11.34,3.89,2.76,5.12,10.91-.3,14.26,1.47-3.26,3.75-11.84.33-15.67,4.45-1.18,4.32,6.37.9,5.68,4.71-4.35.91-8.85.86-13.2,1.83-2.2,5.28,5.18,3.22,8.27,4.74a47,47,0,0,1-7.23,12.93c-3.32.17-13.81.69-8.05,6-1.68,2.31-8.05,1-10.56,4.12.44,5,12.28-.32,10.93,3.62-3.9-.58-10.26,3.13-5.21,6.45-3.31,4.49-13.69-1.07-18.66,3.43,1.55,6.29,15.75-1.37,15.05,6-2.85,8.62-15.53,1.17-18.94,9.18-6.91,2.78.34,12,5.58,6.87C455.13,608.07,450.07,616.76,446.71,616.74Zm51-56.7a2.49,2.49,0,0,1,1.45.42c4.66-.5.35,6.92-3.06,4.11C493.15,564.43,495.13,560.16,497.68,560Zm32.39-58.27c.69,0,1.28-.07,1.78-.08C539.32,501.61,526.22,506.28,530.07,501.77Zm15.74-25.7a3.75,3.75,0,0,1,1.19-.16c3.13.24-.45,7.15-2.91,4.3C542.3,479.17,544.7,476.88,545.81,476.07ZM565,444.53a14,14,0,0,1,2.24-.31C572.84,444.05,563.37,450.87,565,444.53Zm22.85-51.18a3.54,3.54,0,0,1,1.42-.34c2.86,0,2.44,5.18-.94,5.41-5.26,2.77-8.09-4.15-12.85-.21C575.66,391.61,583.48,394.46,587.87,393.35Zm-2.64-8.51c1.46.38,4.21-.48,6.39-.54,1.7-.05,3.06.39,3.21,2.28C590.72,392.4,569,386.7,585.23,384.84ZM577,412.4a12.26,12.26,0,0,1,4.7,1c.46,2-9,2.14-5.38-.92C576.58,412.42,576.8,412.4,577,412.4Zm4-8.46a4,4,0,0,1,1.95-.47c2.3-.06,5.08,1.09,3.35,3.36C584,411,575.12,406.7,581,403.94Zm-3,23c4.24.18-4.12,5.4-3.78.52A15.57,15.57,0,0,1,578,426.94Zm-7.07,8.43c.83,0,1.52-.06,2.1-.05C581.73,435.45,564.48,441,570.94,435.37ZM589.61,349c2-.09,4.1-.38,6.16-.36a13.31,13.31,0,0,1,3.65.48C604.06,358,578.85,354.2,589.61,349ZM590.7,338a2.6,2.6,0,0,1,.7-.11c3.21-.1,2.4,6.35-.91,5.83C587.85,343.16,589.18,339.3,590.7,338Zm2.79-15.7a7.43,7.43,0,0,1,1.71-.19C599.53,322.29,593,328.66,593.49,322.34Zm12.79,29.16c0-1.8.77-3.86,2.89-3.91a1.8,1.8,0,0,1,.4,0C613.42,347.72,608.61,354.8,606.28,351.5ZM584.65,333c-3,1.12-18.85-.4-8.19-1.86,1.27.47,4.06-.41,6.06-.48h0C584.08,330.59,585.15,331,584.65,333Z"/><path d="M450.23,575.86c18.72-31.09,36.52-63,50.93-96.4.66-1.55,2.88-6.33.15-6.33h0a3.68,3.68,0,0,0-.61.07c-16.87,35.4-34.6,70.8-55.78,103.86C444.12,581.7,449.55,578.3,450.23,575.86Z"/><path d="M314.73,493.05c-1-2.11-2.5-5.66-5-5.46-1.49,5.78,5,12.24,6.6,18.11,16.13,38.35,39,73.22,61.34,108.13,3.29,2.66,2.94-2.48,1.29-4.19C356.59,571.3,332.37,533.92,314.73,493.05Z"/><path d="M311.1,546.88c7.91,16.12,19.44,30.84,29.61,45.85,1.49,2,2.84,5.28,5.89,4.61-.32-6.88-7.39-10.88-10-16.9C327.8,569.66,322.75,554.12,311.1,546.88Z"/><path d="M457.32,441.93c11.62,1.45-8.39,10.5-2.72,14,7.26-2.51,9.44-14,18.65-12.62,4.51-2-3.08-4.8-.66-7.26,7.09-10.56,15.39-20.33,21.25-31.64,6.89-7.19,6.75-19.3,15.8-24.4-.15-3.31-3.45-3.84-6.86-3.87-2,0-4.15.15-5.64,0-5.47,1.47.21,4.84,3.09,5.18C497.49,400.69,482.05,415,472,431c-3.31,6.79-12.86,8.33-18,3.48,10.23-16.65,22.05-32.88,31.15-50.39,1.23-2-2-4.54-2.5-.36-9.13,17.32-22.58,32.81-30.55,50.28C442.13,435.68,452.33,442,457.32,441.93Z"/><path d="M546.87,384.43c4.8-12.94,9.09-28.67,8.81-41.18h0c-5.87,10.8-6,24.2-9.92,35.94C544.78,380.93,543.9,390.36,546.87,384.43Z"/><path d="M403.93,938.33c-.18-3.49-5.78-3-8.21-3.15C385,938.21,400.73,944.33,403.93,938.33Z"/><path d="M394.22,955c-8.12,3.72,6.63,9.78,8.24,3.43C401.93,954.85,396.93,955.19,394.22,955Z"/><path d="M400.21,944.73a4,4,0,0,0-1.66.34c-6.32,1.55,1.27,7.84,4.84,4.35C405.33,947.07,402.71,944.79,400.21,944.73Z"/><path d="M294,124.24c4.88.55,7.77-11.22,3-12C294,115.18,292.6,120.3,294,124.24Z"/><path d="M407.56,678.85a3.62,3.62,0,0,0-1.88.4c-6,.4-12,2.06-18,1.49-3.69.11-2.68,5.94.71,5.43,7.82-.92,16.05-.52,23.62-2.69C415.55,680.68,410.8,678.74,407.56,678.85Z"/><path d="M288.34,110.26c4.05-8.92,4.77-19.05,8.44-28.16.42-2,2.87-7.77-.47-7.82a4.08,4.08,0,0,0-.74.07c-6.85,8.41-6.5,20.25-10.23,30.13C283.79,106.61,285,114.39,288.34,110.26Z"/><path d="M399.13,693.09a7.23,7.23,0,0,0-2.63.46c-2.82,0-8.79.85-6.48,5,4.25,2.12,9.33.91,13.57-.63C405.3,694.57,402.07,693.14,399.13,693.09Z"/><path d="M379.57,676c11.86-.68,24.52,1,36.61.29,3.57-.4,3.41-6-.42-5.72-6.79-.17-13.58-.29-20.38-.29s-13.61.17-20.39.4C370.49,671.25,377.93,683,379.57,676Z"/><path d="M592.82,249.33c11-1.58,22.19-1.77,33.12-3,3.67-1.62.48-4-2.14-4a3.63,3.63,0,0,0-1.06.13c-10.39,1.09-20.94,1.61-31.17,3.75C589.05,246.45,591.24,249.63,592.82,249.33Z"/><path d="M602.23,170.92a5,5,0,0,0-1,.12c-5.67,1.88-13.59-1.32-18.21,3.26,6.67,3.39,15,1.58,22.12.4C606.61,172.15,604.45,170.84,602.23,170.92Z"/><path d="M582,179.37c-2.16,20.19-4.31,41.42-6.63,61.86,4.57-3.31,2-14.23,5.74-18.86.93,26.64-3.16,53.6-6.85,80,1.52,4.52-2.23,12.56,1.76,14.92,3.85-5,3-12,5.1-17.81,10.9,3.39,22.56-1.87,33.63-2.35,1.47-4.4-5-3.58-7.41-3.1-8.7,1.39-17.35,3.2-26.14,3.86.4-2.44-.13-5.8,1.57-7.64,11.38.45,22.8-1,34-3.06,2.34-.11,3.55-4,.58-4-11.28.94-22.44,4.09-33.88,3.24-.32-16.83,3.16-33.42,4.46-50.15,10.48-2.79,21.87-1,32.42-3.48,1.8-.57,1-2.66-.56-2.9-10.23-1.76-22.59,3.3-32,.58-6.21-15.47,17.08-4.09,21.26-10.95-4.26-6.13-16.31,1.72-21.46-3.2.73-5.49-1.08-11.55-.28-16.78,10.92-1.46,22.35.22,32.92-3.5,1-2.13-.35-5.8-3.61-3.44-9.81,2.32-20.84,3.79-30.39,1.53-2.71-15.79,25.9-1.12,29.25-11.78C605,180.32,589.85,186.78,582,179.37Z"/><path d="M612.31,271a3.3,3.3,0,0,0-.86.13q-11.49,1.89-23,3.31c-2.71.3-1.57,4,.92,3.4a150.17,150.17,0,0,0,25.88-3.56C617.64,272.14,614.51,270.88,612.31,271Z"/><path d="M313.35,1074c-13.58,3.55-25.55-3-37-9.37-4.64-6.18,14.53-10.41,5.68-13.67h0c-5.65,2.23-14.13,4-13,12-.89,8.17,10.54,7.77,15.4,10.63,2.64,3.32,6.8,3.78,10.73,3,10.79,3.94,21.48,5.2,32.93,2.4C327.78,1072.07,316.32,1080.07,313.35,1074Z"/><path d="M622.06,254.31a3,3,0,0,0-2,.54c-10.18,1.57-20.65.48-30.72,2.79-.72,1.38-.59,3,1.34,2.89,11-.79,22.31-.55,33.2-2.66C626.16,256.3,624.15,254.43,622.06,254.31Z"/></svg>